<svg xmlns="http://www.w3.org/2000/svg" viewBox="0 0 1420 300" role="img" aria-labelledby="title desc">
  <title id="title">GOOD SORT primary logo</title>
  <desc id="desc">GOOD SORT wordmark with interlocking double O and Made For Your Kind tagline.</desc>
  <defs>
    <mask id="interlock-mask">
      <rect width="100%" height="100%" fill="white"/>
      <rect x="258" y="46" width="18" height="70" rx="9" transform="rotate(42 267 81)" fill="black"/>
      <rect x="258" y="146" width="18" height="70" rx="9" transform="rotate(42 267 181)" fill="black"/>
    </mask>
  </defs>
  <g fill="#6E2033">
    <text x="6" y="205" font-family="DejaVu Sans, Arial, sans-serif" font-size="210" font-weight="900" letter-spacing="-12">G</text>
    <g fill-rule="evenodd" mask="url(#interlock-mask)">
      <path d="M225 48a83 83 0 1 1 0 166 83 83 0 0 1 0-166Zm0 45a38 38 0 1 0 0 76 38 38 0 0 0 0-76Z"/>
      <path d="M315 48a83 83 0 1 1 0 166 83 83 0 0 1 0-166Zm0 45a38 38 0 1 0 0 76 38 38 0 0 0 0-76Z"/>
    </g>
    <text x="389" y="205" font-family="DejaVu Sans, Arial, sans-serif" font-size="210" font-weight="900" letter-spacing="-12">D</text>
    <text x="603" y="205" font-family="DejaVu Sans, Arial, sans-serif" font-size="210" font-weight="900" letter-spacing="-12">SORT</text>
    <text x="295" y="276" font-family="DejaVu Sans, Arial, sans-serif" font-size="27" font-weight="700" letter-spacing="15">MADE FOR YOUR KIND.</text>
  </g>
</svg>
